# xmcd
#
# Track frame offsets:
#	150
#	23026
#	43720
#	66597
#
# Disc length: 1162 seconds
#
# Revision: 1
# Processed by: cddbd v1.5.1PL0 Copyright (c) Steve Scherf et al.
# Submitted via: CDex 1.50Beta5
#
DISCID=32048804
DTITLE=Water Fowl - Water Fowl
DYEAR=1900
DGENRE=
TTITLE0=絆
TTITLE1=Your name will live forever
TTITLE2=絆 instrumenntal
TTITLE3=Your name will live forever instrumental
EXTD=
EXTT0=
EXTT1=
EXTT2=
EXTT3=
PLAYORDER=
